HIERARCHY
ROOT Hips
{
	OFFSET -0.001795 -0.223333 0.028219
	CHANNELS 6 Xposition Yposition Zposition Zrotation Yrotation Xrotation 
	JOINT LeftUpLeg
	{
		OFFSET 0.069520 -0.091406 -0.006815
		CHANNELS 3 Zrotation Yrotation Xrotation
		JOINT LeftLeg
		{
			OFFSET 0.034277 -0.375199 -0.004496
			CHANNELS 3 Zrotation Yrotation Xrotation
			JOINT LeftFoot
			{
				OFFSET -0.013596 -0.397961 -0.043693
				CHANNELS 3 Zrotation Yrotation Xrotation
				JOINT LeftToe
				{
					OFFSET 0.026358 -0.055791 0.119288
					CHANNELS 3 Zrotation Yrotation Xrotation
					End Site
					{
						OFFSET 0.000000 0.000000 0.000000
					}
				}
			}
		}
	}
	JOINT RightUpLeg
	{
		OFFSET -0.067670 -0.090522 -0.004320
		CHANNELS 3 Zrotation Yrotation Xrotation
		JOINT RightLeg
		{
			OFFSET -0.038290 -0.382569 -0.008850
			CHANNELS 3 Zrotation Yrotation Xrotation
			JOINT RightFoot
			{
				OFFSET 0.015774 -0.398415 -0.042312
				CHANNELS 3 Zrotation Yrotation Xrotation
				JOINT RightToe
				{
					OFFSET -0.025372 -0.048144 0.123348
					CHANNELS 3 Zrotation Yrotation Xrotation
					End Site
					{
						OFFSET 0.000000 0.000000 0.000000
					}
				}
			}
		}
	}
	JOINT Spine
	{
		OFFSET -0.002533 0.108963 -0.026696
		CHANNELS 3 Zrotation Yrotation Xrotation
		JOINT Spine1
		{
			OFFSET 0.005487 0.135180 0.001092
			CHANNELS 3 Zrotation Yrotation Xrotation
			JOINT Spine2
			{
				OFFSET 0.001457 0.052922 0.025425
				CHANNELS 3 Zrotation Yrotation Xrotation
				JOINT Neck
				{
					OFFSET -0.002778 0.213870 -0.042857
					CHANNELS 3 Zrotation Yrotation Xrotation
					JOINT Head
					{
						OFFSET 0.005152 0.064970 0.051349
						CHANNELS 3 Zrotation Yrotation Xrotation
						End Site
						{
							OFFSET 0.000000 0.000000 0.000000
						}
					}
				}
				JOINT LeftShoulder
				{
					OFFSET 0.078845 0.121749 -0.034090
					CHANNELS 3 Zrotation Yrotation Xrotation
					JOINT LeftArm
					{
						OFFSET 0.090977 0.030469 -0.008868
						CHANNELS 3 Zrotation Yrotation Xrotation
						JOINT LeftForeArm
						{
							OFFSET 0.259612 -0.012772 -0.027456
							CHANNELS 3 Zrotation Yrotation Xrotation
							JOINT LeftHand
							{
								OFFSET 0.249234 0.008986 -0.001171
								CHANNELS 3 Zrotation Yrotation Xrotation
								End Site
								{
									OFFSET 0.000000 0.000000 0.000000
								}
							}
						}
					}
				}
				JOINT RightShoulder
				{
					OFFSET -0.081759 0.118833 -0.038615
					CHANNELS 3 Zrotation Yrotation Xrotation
					JOINT RightArm
					{
						OFFSET -0.096012 0.032551 -0.009143
						CHANNELS 3 Zrotation Yrotation Xrotation
						JOINT RightForeArm
						{
							OFFSET -0.253742 -0.013329 -0.021401
							CHANNELS 3 Zrotation Yrotation Xrotation
							JOINT RightHand
							{
								OFFSET -0.255298 0.007772 -0.005559
								CHANNELS 3 Zrotation Yrotation Xrotation
								End Site
								{
									OFFSET 0.000000 0.000000 0.000000
								}
							}
						}
					}
				}
			}
		}
	}
}
MOTION
Frames: 9
Frame Time: 0.050000
0.000000 0.933133 0.000000 -0.605488 -2.261282 2.026544 -2.554458 0.190281 1.337593 -2.179784 0.305422 -3.881011 2.738504 6.788133 3.338502 0.000000 0.000000 0.000000 -4.892778 0.309295 -2.596575 4.433442 -0.380138 14.277737 -5.943165 -15.422437 5.109896 0.000000 0.000000 0.000000 0.691551 -0.048050 0.792451 -1.532137 0.730286 0.665437 -1.208822 1.458589 8.659760 3.648524 -0.725107 -19.422935 0.000000 0.000000 0.000000 -22.681254 -5.558337 1.010088 -37.923021 2.097512 -5.265952 2.127138 -24.894807 0.494959 0.000000 0.000000 0.000000 20.998955 5.734640 1.525876 42.139890 0.256217 -4.304806 -5.433559 23.531318 -0.199438 0.000000 0.000000 0.000000 
0.005855 0.931084 0.014690 -0.275140 -2.327996 1.708584 -3.402811 0.448949 3.258132 -2.080715 0.316309 -4.953673 2.721545 6.600249 2.768018 0.000000 0.000000 0.000000 -5.584949 0.459384 -5.435291 4.783149 -0.409208 21.835435 -6.437260 -16.534041 5.710652 0.000000 0.000000 0.000000 0.248670 -0.028562 0.579730 -1.734555 0.829298 0.763196 -1.720907 0.412433 9.546847 3.516410 -0.581370 -21.462911 0.000000 0.000000 0.000000 -22.241323 -4.572194 0.819243 -39.480158 -0.605060 -4.866494 5.131671 -24.816522 -0.081473 0.000000 0.000000 0.000000 20.571635 6.122424 1.484078 45.258217 -1.319632 -5.169698 -6.201166 26.050829 -0.422632 0.000000 0.000000 0.000000 
0.011513 0.929760 0.029934 -0.537812 -2.383839 1.168707 -3.235303 0.555559 4.212782 -2.595196 0.338577 -3.740098 2.881985 6.615986 1.666054 0.000000 0.000000 0.000000 -5.576096 0.749048 -10.965900 5.805108 -0.701898 33.442176 -8.045929 -19.920578 9.293316 0.000000 0.000000 0.000000 0.658190 -0.095757 1.876611 -2.227950 1.065171 -0.498156 -1.136310 -1.007533 11.051095 2.787151 -0.467188 -20.795024 0.000000 0.000000 0.000000 -21.256170 -5.639623 2.001107 -41.248916 -2.022396 -4.902248 3.020408 -25.692354 0.477343 0.000000 0.000000 0.000000 20.246074 6.610459 1.342861 45.435143 -1.977927 -5.420827 -3.543490 28.088281 0.057942 0.000000 0.000000 0.000000 
0.016533 0.928241 0.047185 -0.253154 -1.567402 0.189942 -4.062761 0.891212 6.537230 -2.043229 0.294469 -3.951645 2.547750 5.761719 1.075487 0.000000 0.000000 0.000000 -6.339685 0.901460 -15.800047 7.062633 -1.463708 41.841801 -10.647198 -24.162334 15.508659 0.000000 0.000000 0.000000 0.156169 -0.111868 2.629599 -2.121170 1.018930 0.654709 -1.028155 -3.637776 11.063550 2.572078 -0.530519 -22.047832 0.000000 0.000000 0.000000 -23.039068 -6.374560 3.149008 -39.908815 -2.855224 -4.751129 4.171991 -28.061945 0.358990 0.000000 0.000000 0.000000 20.463639 7.116940 0.946031 45.312632 -4.075402 -5.969858 -1.864574 30.415655 0.320381 0.000000 0.000000 0.000000 
0.020753 0.927770 0.067455 -0.311663 -0.536157 -0.686196 -4.623044 1.276612 9.230699 -1.012519 0.230026 -4.665041 2.066365 4.751032 1.017484 0.000000 0.000000 0.000000 -5.903078 1.194498 -21.435031 8.073039 -2.343650 46.260583 -14.159028 -28.912832 19.312003 0.000000 0.000000 0.000000 0.151674 -0.165239 3.921451 -1.118393 0.533631 0.343567 -1.914397 -5.959228 11.017176 0.712903 0.198181 -20.434946 0.000000 0.000000 0.000000 -23.010944 -7.354171 4.249604 -40.191236 -4.964785 -4.286232 4.791759 -29.673275 0.315791 0.000000 0.000000 0.000000 18.815138 7.113675 0.615916 47.464833 -6.016829 -6.961953 1.044787 31.400254 0.963414 0.000000 0.000000 0.000000 
0.024117 0.926746 0.091395 -0.766526 -0.092381 -1.486894 -4.946012 1.640071 11.803347 0.375576 0.140285 -4.871443 1.955953 4.446986 0.804633 0.000000 0.000000 0.000000 -4.866082 1.582341 -25.516229 8.668382 -2.689584 44.063205 -12.753445 -27.855594 12.025477 0.000000 0.000000 0.000000 0.342958 -0.222412 5.062174 -0.666719 0.307427 0.720088 -1.680757 -7.412633 11.168650 -0.212390 0.572169 -20.533838 0.000000 0.000000 0.000000 -22.935051 -8.336590 5.242687 -40.866621 -6.327518 -4.063686 5.135917 -33.002605 0.378276 0.000000 0.000000 0.000000 18.014324 6.448850 0.036131 48.235727 -7.105654 -7.510293 2.557119 32.152048 1.288860 0.000000 0.000000 0.000000 
0.026444 0.923844 0.119037 -1.173202 -0.024449 -2.209582 -5.131034 2.005122 14.388761 1.459059 0.062947 -4.794374 2.067978 4.513800 0.347462 0.000000 0.000000 0.000000 -3.405103 2.027743 -27.584044 8.512148 -2.291564 36.289797 -10.767262 -24.982027 6.819629 0.000000 0.000000 0.000000 0.536482 -0.260630 5.718460 0.038821 -0.055933 1.315833 -2.027051 -7.910149 10.744332 -0.785603 0.844950 -19.953244 0.000000 0.000000 0.000000 -22.923865 -8.334138 5.335178 -40.800746 -8.425790 -3.415416 4.959800 -35.103677 0.517314 0.000000 0.000000 0.000000 17.367111 6.057966 -0.185761 49.888135 -8.205961 -8.267923 3.719431 31.940338 1.556814 0.000000 0.000000 0.000000 
0.027601 0.919797 0.150224 -1.197056 0.020343 -2.329061 -5.281690 2.358397 16.792704 1.901045 0.051236 -5.163217 2.031042 4.427252 0.319367 0.000000 0.000000 0.000000 -2.600040 2.317090 -28.933447 7.915561 -1.581190 23.224435 -12.472614 -26.980944 14.437719 0.000000 0.000000 0.000000 0.171020 -0.245813 5.801392 0.443830 -0.260153 1.376256 -1.954759 -8.242848 11.066391 -1.453454 1.189490 -20.009774 0.000000 0.000000 0.000000 -22.225673 -9.581506 6.127133 -41.881424 -9.765118 -3.069803 5.384326 -38.167040 0.522343 0.000000 0.000000 0.000000 17.338161 5.768754 -0.399384 50.974583 -9.061525 -8.878199 5.060058 32.231161 1.913400 0.000000 0.000000 0.000000 
0.027581 0.913708 0.185222 -1.147471 0.259098 -1.694714 -4.855089 2.490252 18.248350 1.370137 0.071235 -4.822359 1.928833 4.075813 -0.031362 0.000000 0.000000 0.000000 -1.536499 2.570329 -29.077538 5.752257 -0.727212 9.285287 -13.940353 -28.064053 21.875056 0.000000 0.000000 0.000000 -0.238033 -0.195262 5.040846 0.730431 -0.420051 1.818044 -2.019475 -9.389219 10.320142 -1.951294 1.369329 -20.060197 0.000000 0.000000 0.000000 -21.918419 -8.786660 5.890315 -42.487934 -11.282608 -2.576988 6.116548 -41.031631 0.465094 0.000000 0.000000 0.000000 18.864203 6.828188 -0.368095 51.068404 -10.604233 -9.334182 5.795352 32.226416 2.033356 0.000000 0.000000 0.000000 
